<?xml version="1.0" encoding="UTF-8" standalone="no"?>
<!-- Created with Inkscape (http://www.inkscape.org/) -->

<svg
   width="210mm"
   height="148mm"
   viewBox="0 0 210 148"
   version="1.1"
   id="svg1"
   xml:space="preserve"
   inkscape:version="1.3.2 (091e20e, 2023-11-25, custom)"
   sodipodi:docname="protech.svg"
   xmlns:inkscape="http://www.inkscape.org/namespaces/inkscape"
   xmlns:sodipodi="http://sodipodi.sourceforge.net/DTD/sodipodi-0.dtd"
   xmlns="http://www.w3.org/2000/svg"
   xmlns:svg="http://www.w3.org/2000/svg"><sodipodi:namedview
     id="namedview1"
     pagecolor="#ffffff"
     bordercolor="#666666"
     borderopacity="1.0"
     inkscape:showpageshadow="2"
     inkscape:pageopacity="0.0"
     inkscape:pagecheckerboard="0"
     inkscape:deskcolor="#d1d1d1"
     inkscape:document-units="mm"
     inkscape:zoom="1.0343421"
     inkscape:cx="289.55605"
     inkscape:cy="268.28649"
     inkscape:window-width="1920"
     inkscape:window-height="1017"
     inkscape:window-x="-8"
     inkscape:window-y="-8"
     inkscape:window-maximized="1"
     inkscape:current-layer="layer1" /><defs
     id="defs1"><rect
       x="171.12328"
       y="639.05359"
       width="502.73505"
       height="170.15646"
       id="rect20" /></defs><g
     inkscape:label="Sloj 1"
     inkscape:groupmode="layer"
     id="layer1"><rect
       style="fill:#000000;fill-rule:evenodd;stroke-width:0.264583;fill-opacity:1"
       id="rect1"
       width="8.5916567"
       height="8.410779"
       x="21.284079"
       y="61.847069" /><rect
       style="fill:#000000;fill-rule:evenodd;stroke-width:0.264583"
       id="rect2"
       width="8.5916567"
       height="8.5916567"
       x="21.374516"
       y="72.066628" /><rect
       style="fill:#000000;fill-rule:evenodd;stroke-width:0.268108"
       id="rect4"
       width="8.5464363"
       height="8.6820955"
       x="21.464956"
       y="82.647926" /><rect
       style="fill:#000000;fill-rule:evenodd;stroke-width:0.259715"
       id="rect5"
       width="8.3655605"
       height="8.5916567"
       x="31.729727"
       y="82.647926" /><rect
       style="fill:#000000;fill-rule:evenodd;stroke-width:0.264583"
       id="rect6"
       width="8.6820946"
       height="8.5916567"
       x="42.265804"
       y="82.647926" /><path
       id="rect8"
       style="fill:#000000;stroke-width:0.264583"
       d="m 45.883351,69.986542 6.692448,-4.52193 4.883678,6.3307 -6.782886,4.70281 z"
       sodipodi:nodetypes="ccccc" /><path
       style="fill:#000000;fill-opacity:1;stroke-width:0.0904386"
       d="m 31.774943,76.362457 v -4.25061 h 4.205388 4.205391 v 4.25061 4.2506 h -4.205391 -4.205388 z"
       id="path10" /><path
       id="rect13"
       style="fill:#000000;stroke-width:0.264583"
       d="m 38.467389,57.958222 4.883678,-6.42114 6.330695,4.79325 -4.521925,6.51157 z"
       sodipodi:nodetypes="ccccc" /><rect
       style="fill:#000000;fill-opacity:1;stroke-width:0.264583"
       id="rect14"
       width="8.5012178"
       height="8.5916567"
       x="54.836754"
       y="49.095245" /><text
       xml:space="preserve"
       transform="matrix(0.76528371,0,0,0.65056898,-54.766492,-362.36576)"
       id="text20"
       style="font-style:normal;font-weight:normal;font-size:40px;line-height:1.25;font-family:sans-serif;white-space:pre;shape-inside:url(#rect20);display:inline;fill:#000000;fill-opacity:1;stroke:none;stroke-width:1.00057;stroke-dasharray:none"><tspan
         x="171.12305"
         y="675.54595"
         id="tspan3"><tspan
           style="fill:#000000"
           id="tspan2">protech</tspan></tspan></text><path
       style="fill:#000000;fill-opacity:1;stroke:#59606d;stroke-width:0.91208;stroke-dasharray:none"
       d="m 81.010099,288.66257 v -16.06529 h 16.065294 16.065297 v 16.06529 16.06529 H 97.075393 81.010099 Z"
       id="path20"
       transform="scale(0.26458333)" /><path
       style="fill:#000000;fill-opacity:1;stroke:#59606d;stroke-width:0.91208;stroke-dasharray:none"
       d="m 120.3188,288.49166 v -15.89438 h 15.72348 15.72348 v 15.89438 15.89439 H 136.04228 120.3188 Z"
       id="path21"
       transform="scale(0.26458333)" /><path
       style="fill:#000000;fill-opacity:1;stroke:#59606d;stroke-width:0.91208;stroke-dasharray:none"
       d="m 81.351914,328.8258 v -16.2362 h 15.894387 15.894389 v 16.2362 16.23621 H 97.246301 81.351914 Z"
       id="path22"
       transform="scale(0.26458333)" /><path
       style="fill:#000000;fill-opacity:1;stroke:#59606d;stroke-width:0.91208;stroke-dasharray:none"
       d="m 119.97698,328.6549 v -16.0653 h 15.72348 15.72348 v 16.0653 16.06529 h -15.72348 -15.72348 z"
       id="path23"
       transform="scale(0.26458333)" /><path
       style="fill:#000000;fill-opacity:1;stroke:#59606d;stroke-width:0.91208;stroke-dasharray:none"
       d="m 159.96931,328.6549 v -16.0653 h 16.2362 16.2362 v 16.0653 16.06529 h -16.2362 -16.2362 z"
       id="path24"
       transform="scale(0.26458333)" /><path
       style="fill:#000000;fill-opacity:1;stroke:#59606d;stroke-width:0.91208;stroke-dasharray:none"
       d="m 182.5834,276.6136 c -4.88166,-6.62694 -8.85208,-12.06498 -8.82317,-12.08454 18.91136,-12.79323 24.53273,-16.54245 24.80286,-16.54245 0.3091,0 18.13518,22.84921 18.14365,23.25626 0.004,0.20687 -24.75217,17.4197 -25.054,17.4197 -0.10647,0 -4.18768,-5.42204 -9.06934,-12.04897 z"
       id="path25"
       transform="scale(0.26458333)" /><path
       style="fill:#000000;fill-opacity:1;stroke:#59606d;stroke-width:0.91208;stroke-dasharray:none"
       d="m 158.27203,228.19559 c -6.66745,-4.86787 -12.17071,-8.99489 -12.22947,-9.17117 -0.0915,-0.27462 17.36532,-23.57759 17.81156,-23.77645 0.24105,-0.10743 23.4621,17.52139 23.44956,17.80231 -0.0154,0.3451 -16.36777,23.8099 -16.66378,23.91166 -0.13488,0.0464 -5.70042,-3.89849 -12.36787,-8.76635 z"
       id="path26"
       transform="scale(0.26458333)" /><path
       style="fill:#000000;fill-opacity:1;stroke:#59606d;stroke-width:0.91208;stroke-dasharray:none"
       d="m 207.48156,201.84162 v -16.0653 h 15.89439 15.89439 v 16.0653 16.06529 h -15.89439 -15.89439 z"
       id="path27"
       transform="scale(0.26458333)" /></g></svg>
